<svg id="Layer_1" xmlns="http://www.w3.org/2000/svg" width="18" height="18" viewBox="0 0 18 18"><style></style><path fill="#fff" d="M11.6 1.8H2.7v14.4h12.6V5.5z"/><linearGradient id="SVGID_1_" gradientUnits="userSpaceOnUse" x1="1.328" y1="3.167" x2="14.828" y2="16.667"><stop offset="0" stop-color="#cdcccc"/><stop offset="1" stop-color="#b4b4b4"/></linearGradient><path d="M11.3 2.7l3.2 3.2v9.5H3.6V2.7h7.7m.3-.9H2.7v14.4h12.6V5.5l-3.7-3.7z" fill="url(#SVGID_1_)"/><linearGradient id="SVGID_2_" gradientUnits="userSpaceOnUse" x1="6.172" y1="5.945" x2="11.828" y2="11.602"><stop offset="0" stop-color="#cdcccc"/><stop offset="1" stop-color="#b4b4b4"/></linearGradient><path d="M9 4.8c-2.2 0-4 1.8-4 4s1.8 4 4 4 4-1.8 4-4-1.8-4-4-4zm0 7.5c-.5 0-1-.1-1.4-.3l1.8-2s.1-.1.1-.2V9c0-.1-.1-.2-.2-.2-.9 0-1.8-.9-1.8-.9s-.1-.1-.2-.1h-1c-.2 0-.3.1-.3.2v1.5c0 .1.1.2.1.2l.9.5v1.5C6.1 11 5.5 10 5.5 8.8c0-.5.1-1 .3-1.5h.9c.1 0 .1 0 .2-.1l1-1c.1 0 .1-.1.1-.2v-.6c.3-.1.7-.1 1-.1.6 0 1.1.1 1.5.4l-.1.1c-.2.2-.4.6-.4 1s.2.8.4 1.1c.3.3.7.4 1.1.4h.1c.1.4.3 1.5-.1 2.9-.6.7-1.5 1.1-2.5 1.1z" fill="url(#SVGID_2_)"/></svg>
